<svg width="37" height="40" viewBox="0 0 37 40" fill="none" xmlns="http://www.w3.org/2000/svg">
<path d="M0.745331 0.626602C0.222247 1.23576 -0.0422778 2.01538 0.00550798 2.80703V37.1977C-0.0395738 37.989 0.224633 38.7677 0.745331 39.3781L0.866392 39.4956L20.7071 20.2243V19.7673L0.866392 0.509094L0.745331 0.626602Z" fill="url(#paint0_linear_2004_368)"/>
<path d="M27.3251 26.6481L20.707 20.2243V19.7673L27.3251 13.3566L27.473 13.435L35.3152 17.7567C37.5615 18.984 37.5615 21.0077 35.3152 22.2481L27.473 26.5697L27.3251 26.6481Z" fill="url(#paint1_linear_2004_368)"/>
<path d="M27.4729 26.5698L20.7472 20.0416L0.745117 39.3782C1.20616 39.7461 1.78017 39.9547 2.37679 39.9713C2.97341 39.9878 3.55875 39.8113 4.04069 39.4696L27.4325 26.5698" fill="url(#paint2_linear_2004_368)"/>
<path d="M27.4729 13.435L4.04069 0.522168C3.56392 0.166381 2.97469 -0.0177072 2.37363 0.00134317C1.77256 0.0203936 1.19696 0.241401 0.745117 0.626619L20.7069 20.0024L27.4729 13.435Z" fill="url(#paint3_linear_2004_368)"/>
<path opacity="0.1" d="M27.3252 26.4262L4.04101 39.2476C3.57655 39.5836 3.01279 39.765 2.43357 39.765C1.85435 39.765 1.2906 39.5836 0.82614 39.2476L0.705078 39.3651L0.82614 39.4827C1.2906 39.8186 1.85435 40 2.43357 40C3.01279 40 3.57655 39.8186 4.04101 39.4827L27.4328 26.5829L27.3252 26.4262Z" fill="black"/>
<path opacity="0.07" d="M0.745418 39.1693C0.223849 38.5542 -0.0402489 37.7712 0.00559541 36.9758V37.1978C-0.0394864 37.9891 0.22472 38.7678 0.745418 39.3782L0.86648 39.2607L0.745418 39.1693Z" fill="black"/>
<path opacity="0.07" d="M35.3153 22.0131L27.3252 26.4262L27.4732 26.5698L35.3153 22.1959C35.7753 21.9996 36.1733 21.6882 36.4687 21.2937C36.7641 20.8991 36.9463 20.4355 36.9967 19.9502C36.9049 20.3988 36.7046 20.8198 36.4123 21.1784C36.1199 21.5371 35.7439 21.8232 35.3153 22.0131Z" fill="black"/>
<path opacity="0.3" d="M4.04077 0.757266L35.3151 17.9787C35.7396 18.1639 36.113 18.4437 36.4052 18.7954C36.6973 19.147 36.8999 19.5606 36.9965 20.0025C36.9489 19.5164 36.7677 19.0516 36.472 18.6566C36.1762 18.2616 35.7767 17.9508 35.3151 17.7568L4.04077 0.52225C1.83475 -0.705056 0.00537109 0.313347 0.00537109 2.80713V3.02909C0.00537109 0.548363 1.83475 -0.483096 4.04077 0.757266Z" fill="#0B0B0B"/>
<defs>
<linearGradient id="paint0_linear_2004_368" x1="18.9584" y1="2.44145" x2="-7.12983" y2="29.3187" gradientUnits="userSpaceOnUse">
<stop stop-color="#008EFF"/>
<stop offset="0.01" stop-color="#008FFF"/>
<stop offset="0.26" stop-color="#00ACFF"/>
<stop offset="0.51" stop-color="#00C0FF"/>
<stop offset="0.76" stop-color="#00CDFF"/>
<stop offset="1" stop-color="#00D1FF"/>
</linearGradient>
<linearGradient id="paint1_linear_2004_368" x1="35.5842" y1="20.0024" x2="-3.18251" y2="20.0024" gradientUnits="userSpaceOnUse">
<stop stop-color="#FFD800"/>
<stop offset="1" stop-color="#FF8A00"/>
</linearGradient>
<linearGradient id="paint2_linear_2004_368" x1="23.8007" y1="23.5668" x2="-11.5666" y2="60.0037" gradientUnits="userSpaceOnUse">
<stop stop-color="#FF3A44"/>
<stop offset="1" stop-color="#B11162"/>
</linearGradient>
<linearGradient id="paint3_linear_2004_368" x1="-4.28568" y1="-10.8239" x2="11.519" y2="5.4454" gradientUnits="userSpaceOnUse">
<stop stop-color="#328E71"/>
<stop offset="0.07" stop-color="#2D9571"/>
<stop offset="0.48" stop-color="#15BD74"/>
<stop offset="0.8" stop-color="#06D575"/>
<stop offset="1" stop-color="#00DE76"/>
</linearGradient>
</defs>
</svg>
