<svg aria-hidden="true" style="position: absolute; width: 0; height: 0; overflow: hidden;" version="1.1" xmlns="http://www.w3.org/2000/svg" xmlns:xlink="http://www.w3.org/1999/xlink">
<defs>
<symbol id="icon-playmarket" viewBox="0 0 30 32">
<path fill="#000" style="fill: var(--color1, #000)" d="M0.596 0.501c-0.418 0.487-0.63 1.111-0.592 1.744v27.513c-0.036 0.633 0.175 1.256 0.592 1.744l0.097 0.094 15.873-15.417v-0.366l-15.873-15.407-0.097 0.094z"></path>
<path fill="#000" style="fill: var(--color1, #000)" d="M21.86 21.318l-5.294-5.139v-0.366l5.294-5.129 0.118 0.063 6.274 3.457c1.797 0.982 1.797 2.601 0 3.593l-6.392 3.52z"></path>
<path fill="#000" style="fill: var(--color1, #000)" d="M21.978 21.256l-5.381-5.223-16.002 15.469c0.369 0.294 0.828 0.461 1.305 0.474s0.946-0.128 1.331-0.401l18.713-10.32z"></path>
<path fill="#000" style="fill: var(--color1, #000)" d="M21.978 10.748l-18.746-10.33c-0.381-0.285-0.853-0.432-1.334-0.417s-0.941 0.192-1.303 0.5l15.969 15.501 5.413-5.254z"></path>
<path fill="#000" style="fill: var(--color1, #000)" opacity="0.1" d="M21.86 21.141l-18.627 10.257c-0.372 0.269-0.823 0.414-1.286 0.414s-0.914-0.145-1.286-0.414l-0.097 0.094 0.097 0.094c0.372 0.269 0.823 0.414 1.286 0.414s0.914-0.145 1.286-0.414l18.713-10.32-0.086-0.125z"></path>
<path fill="#000" style="fill: var(--color1, #000)" opacity="0.07" d="M0.596 31.335c-0.417-0.492-0.629-1.118-0.592-1.755v0.178c-0.036 0.633 0.175 1.256 0.592 1.744l0.097-0.094-0.097-0.073z"></path>
<path fill="#000" style="fill: var(--color1, #000)" opacity="0.07" d="M28.252 17.61l-6.392 3.53 0.118 0.115 6.274-3.499c0.368-0.157 0.686-0.406 0.923-0.722s0.382-0.687 0.422-1.075c-0.073 0.359-0.234 0.696-0.468 0.983s-0.535 0.516-0.878 0.668z"></path>
<path fill="#0b0b0b" style="fill: var(--color2, #0b0b0b)" opacity="0.3" d="M3.233 0.606l25.019 13.777c0.34 0.148 0.638 0.372 0.872 0.653s0.396 0.612 0.473 0.966c-0.038-0.389-0.183-0.761-0.42-1.077s-0.556-0.565-0.926-0.72l-25.019-13.788c-1.765-0.982-3.228-0.167-3.228 1.828v0.178c0-1.985 1.464-2.81 3.228-1.817z"></path>
</symbol>
<symbol id="icon-arrow-down" viewBox="0 0 61 32">
<path fill="#fff" style="fill: var(--color3, #fff)" d="M44.342 6.969l2.698 2.701-14.705 14.71c-0.236 0.237-0.516 0.425-0.824 0.554s-0.64 0.194-0.974 0.194c-0.334 0-0.665-0.066-0.974-0.194s-0.589-0.317-0.824-0.554l-14.713-14.71 2.698-2.698 13.809 13.806 13.809-13.809z"></path>
</symbol>
<symbol id="icon-arrow-left" viewBox="0 0 17 32">
<path fill="#fff" style="fill: var(--color3, #fff)" d="M13.818 23.301l-1.514 1.426-8.248-7.774c-0.133-0.125-0.238-0.273-0.31-0.436s-0.109-0.338-0.109-0.515c0-0.177 0.037-0.352 0.109-0.515s0.178-0.311 0.31-0.436l8.248-7.778 1.513 1.427-7.741 7.301 7.743 7.301z"></path>
</symbol>
<symbol id="icon-arrow-right" viewBox="0 0 17 32">
<path fill="#fff" style="fill: var(--color3, #fff)" d="M3.636 8.699l1.514-1.426 8.248 7.774c0.133 0.125 0.238 0.273 0.31 0.436s0.109 0.338 0.109 0.515c0 0.177-0.037 0.352-0.109 0.515s-0.178 0.311-0.31 0.436l-8.248 7.778-1.513-1.426 7.741-7.301-7.743-7.301z"></path>
</symbol>
<symbol id="icon-burger-icon" viewBox="0 0 32 32">
<path fill="none" stroke="#fff" style="stroke: var(--color3, #fff)" stroke-linejoin="round" stroke-linecap="round" stroke-miterlimit="4" stroke-width="1.7778" d="M4 8.001h24M4 16.001h24M4 24.001h24"></path>
</symbol>
<symbol id="icon-close-icon" viewBox="0 0 32 32">
<path fill="#fff" style="fill: var(--color3, #fff)" d="M22.059 11.541c0.107-0.103 0.192-0.227 0.25-0.363s0.089-0.284 0.091-0.432-0.027-0.296-0.083-0.434c-0.056-0.138-0.139-0.263-0.244-0.368s-0.229-0.188-0.367-0.245c-0.137-0.056-0.284-0.085-0.432-0.084s-0.295 0.032-0.431 0.091c-0.136 0.059-0.259 0.144-0.362 0.251l-4.475 4.487-4.473-4.487c-0.102-0.11-0.225-0.198-0.362-0.26s-0.285-0.094-0.435-0.097c-0.15-0.003-0.299 0.025-0.438 0.081s-0.265 0.14-0.371 0.246c-0.106 0.106-0.19 0.233-0.246 0.372s-0.084 0.289-0.081 0.439c0.003 0.15 0.035 0.299 0.096 0.436s0.149 0.261 0.259 0.364l4.47 4.489-4.473 4.487c-0.197 0.212-0.305 0.493-0.299 0.783s0.122 0.567 0.327 0.772c0.205 0.205 0.481 0.323 0.77 0.328s0.569-0.103 0.781-0.3l4.476-4.487 4.473 4.489c0.212 0.198 0.492 0.306 0.781 0.3s0.565-0.123 0.77-0.328c0.205-0.205 0.322-0.482 0.327-0.772s-0.102-0.571-0.3-0.783l-4.47-4.489 4.472-4.487z"></path>
</symbol>
<symbol id="icon-icon-adv-1" viewBox="0 0 32 32">
<path fill="#200868" style="fill: var(--color4, #200868); stroke: var(--color5, #cdbeff)" stroke="#cdbeff" stroke-linejoin="miter" stroke-linecap="butt" stroke-miterlimit="4" stroke-width="1.2766" d="M4.646 0.816h22.708c2.115 0 3.83 1.715 3.83 3.83v22.708c0 2.115-1.715 3.83-3.83 3.83h-22.708c-2.115 0-3.83-1.715-3.83-3.83v-22.708c0-2.115 1.715-3.83 3.83-3.83z"></path>
<path fill="#cdbeff" style="fill: var(--color5, #cdbeff)" d="M1.455 9.6l0.755 0.701c0.26 0.242 0.408 0.581 0.408 0.936v9.527c0 0.355-0.148 0.694-0.408 0.936l-0.755 0.701v-12.8z"></path>
<path fill="#cdbeff" style="fill: var(--color5, #cdbeff)" d="M30.545 22.4l-0.755-0.701c-0.26-0.242-0.408-0.581-0.408-0.936v-9.527c0-0.355 0.148-0.694 0.408-0.936l0.755-0.701v12.8z"></path>
<path fill="#cdbeff" style="fill: var(--color5, #cdbeff)" d="M19.331 8.734c-0.001-0.007-0.002-0.013-0.004-0.020-0.053-0.249-2.927-0.427-3.838-0.478l0.489 4.928c0.385 0.348 0.74 0.689 1.023 0.981l0.013 0.013c-0.082-0.103-0.141-0.179-0.141-0.196 0.424 0.2 1.235 0.328 2.177 0.43l0.282-5.659zM17.687 15.017c0.192 0.546 0.249 1.063 0.146 1.493-0.105 0.439-0.377 0.781-0.82 0.955-0.088 0.035-0.183 0.063-0.284 0.083-0.145 0.549-0.237 1.271-0.299 1.752-0.024 0.191-0.044 0.343-0.060 0.432-0.062 0.343-0.147-1.202 0.013-2.143-0.326 0.014-0.702-0.033-1.127-0.146-0.29-0.078-0.606-0.187-0.947-0.331-0.722-0.239-1.288-0.59-1.756-0.922l0.033-0.051c-0.849-0.572-1.307-1.062-1.531-1.305l1.213 0.77 1.052 0.638c0.019 0.023 0.038 0.061 0.050 0.104 0.371 0.203 0.716 0.371 1.036 0.507 0.584 0.192 1.273 0.305 2.104 0.264 0.018-0.041 0.038-0.077 0.060-0.108 0.156-0.22 0.257-0.139 0.291-0.025 0.286-0.164 0.465-0.425 0.563-0.718 0.134-0.402 0.111-0.855 0-1.168l-0.006-0.026c0 0.001 0 0.001-0-0l-0-0.001c-0.002-0.005-0.010-0.025-0.034-0.064-0.028-0.044-0.069-0.1-0.124-0.168-0.109-0.135-0.265-0.307-0.455-0.503-0.38-0.392-0.893-0.876-1.436-1.346s-1.116-0.925-1.614-1.261c-0.249-0.168-0.478-0.305-0.674-0.399-0.2-0.096-0.35-0.14-0.447-0.14-0.069 0-0.166 0.020-0.29 0.066-0.122 0.045-0.263 0.11-0.417 0.193-0.308 0.165-0.661 0.395-1.017 0.648-0.712 0.506-1.425 1.097-1.796 1.438l-0.125-0.136c-0.695 0.673-1.316 1.449-1.081 1.909 0.042 0.082 0.090 0.18 0.145 0.291v0c0.574 1.161 1.875 3.792 4.139 5.368 0 0.151-1.043 2.999-1.043 2.999 1.248 0.614 6.519 1.348 9.263 0 0 0-1.033-2.95-1.082-3.261 0 0 2.423-0.967 2.953-1.706 0.256-0.356 0.572-2.047 0.778-3.791-1.335-0.204-4-0.476-5.429-0.324 0.025 0.041 0.048 0.087 0.058 0.132zM9.875 8.222c-0.124 0.352 0.527 3.368 0.627 3.829 0.082-0.060 0.164-0.119 0.246-0.178 0.361-0.256 0.724-0.493 1.046-0.666 0.161-0.087 0.314-0.158 0.453-0.209 0.137-0.050 0.269-0.082 0.385-0.082 0.162 0 0.359 0.067 0.567 0.167 0.212 0.102 0.453 0.247 0.708 0.419 0.462 0.312 0.982 0.719 1.482 1.145l-0.359-5.575c-0.011-0.026-0.023-0.048-0.036-0.064-0.155-0.206-4.985 0.832-5.118 1.214zM20.632 14.542c0.888 0.078 1.771 0.155 2.472 0.264 0.187-1.738 0.252-3.431 0.024-3.814-0.305-0.513-2.463-0.835-3.385-0.95l-0.039 4.417c0.305 0.029 0.617 0.056 0.928 0.083zM4.655 13.091v3.628l3.782 3.063-3.782-6.691zM4.655 9.018l2.327 5.818-1.074-4.76-1.253-1.058zM24.436 10.938v2.735l1.745-5.527-1.745 2.793zM27.345 11.345l-1.105 6.596-3.84 3.004 4.945-9.6z"></path>
</symbol>
<symbol id="icon-icon-adv-2" viewBox="0 0 32 32">
<path fill="#200868" style="fill: var(--color4, #200868); stroke: var(--color5, #cdbeff)" stroke="#cdbeff" stroke-linejoin="miter" stroke-linecap="butt" stroke-miterlimit="4" stroke-width="1.2766" d="M4.646 0.816h22.708c2.115 0 3.83 1.715 3.83 3.83v22.708c0 2.115-1.715 3.83-3.83 3.83h-22.708c-2.115 0-3.83-1.715-3.83-3.83v-22.708c0-2.115 1.715-3.83 3.83-3.83z"></path>
<path fill="#cdbeff" style="fill: var(--color5, #cdbeff)" d="M1.455 9.6l0.755 0.701c0.26 0.242 0.408 0.581 0.408 0.936v9.527c0 0.355-0.148 0.694-0.408 0.936l-0.755 0.701v-12.8z"></path>
<path fill="#cdbeff" style="fill: var(--color5, #cdbeff)" d="M30.545 22.4l-0.755-0.701c-0.26-0.242-0.408-0.581-0.408-0.936v-9.527c0-0.355 0.148-0.694 0.408-0.936l0.755-0.701v12.8z"></path>
<path fill="#cdbeff" style="fill: var(--color5, #cdbeff)" d="M21.417 6.912c-0.257 0.837-2.285 2.814-3.187 2.819 2.74 0.479 3.188 4.545 3.739 3.527s0.749-4.492-0.552-6.346z"></path>
<path fill="#cdbeff" style="fill: var(--color5, #cdbeff)" d="M11.164 6.912c0.257 0.837 2.284 2.815 3.187 2.82-2.718 0.344-3.189 4.548-3.739 3.529s-0.749-4.494 0.552-6.349z"></path>
<path fill="#cdbeff" style="fill: var(--color5, #cdbeff)" d="M16.199 25.018c3.455 0 6.395-2.225 7.487-5.331-0.432 0.475-0.939 0.889-1.482 1.202-1.287 0.742-2.847 0.947-4.12-0.066-0.547-0.36-0.816-0.994-0.884-1.59-0.066-0.581 0.051-1.211 0.384-1.6 0.346-0.58 1.004-0.744 1.599-0.536 0.507 0.177 0.969 0.615 1.227 1.282 0.167-0.194 0.249-0.448 0.256-0.729 0.011-0.414-0.144-0.857-0.399-1.166l0.427-0.358c0.341 0.413 0.541 0.989 0.527 1.539-0.015 0.558-0.255 1.118-0.826 1.43l-0.32 0.175-0.083-0.357c-0.172-0.739-0.595-1.148-0.992-1.286s-0.765-0.017-0.951 0.311l-0.015 0.027-0.020 0.023c-0.2 0.222-0.32 0.679-0.263 1.183 0.056 0.497 0.275 0.952 0.644 1.19l0.012 0.008 0.011 0.009c1.033 0.829 2.335 0.704 3.509 0.026 0.881-0.508 1.947-1.307 2.417-2.17 0.060-0.398 0.092-0.805 0.092-1.22 0-4.421-3.852-8.576-8.238-8.576s-8.344 4.155-8.344 8.576c0 0.415 0.031 0.823 0.092 1.22 0.469 0.863 1.642 1.662 2.523 2.17 1.175 0.677 2.476 0.803 3.509-0.026l0.011-0.009 0.012-0.008c0.368-0.238 0.588-0.694 0.644-1.19 0.057-0.504-0.063-0.961-0.263-1.183l-0.020-0.023-0.015-0.027c-0.186-0.328-0.554-0.449-0.951-0.311s-0.82 0.547-0.992 1.286l-0.083 0.357-0.32-0.175c-0.571-0.312-0.811-0.872-0.826-1.43-0.015-0.55 0.186-1.126 0.527-1.539l0.427 0.358c-0.255 0.309-0.41 0.752-0.399 1.166 0.008 0.281 0.089 0.535 0.256 0.729 0.258-0.667 0.72-1.105 1.227-1.282 0.595-0.207 1.254-0.044 1.599 0.536 0.333 0.389 0.45 1.019 0.384 1.6-0.068 0.596-0.337 1.23-0.884 1.59-1.273 1.013-2.833 0.808-4.12 0.066-0.543-0.313-1.049-0.727-1.481-1.201 1.092 3.106 4.032 5.331 7.487 5.331zM17.26 11.891l2.445-0.823v0.033c0 0.439 0.001 1.382-0.611 1.657-0.889 0.398-1.833-0.867-1.833-0.867zM12.693 11.068l2.445 0.823c0 0-0.945 1.265-1.834 0.867-0.613-0.274-0.612-1.217-0.611-1.656v-0.034zM15.722 15.257c-0.392 0.091-0.755 0.242-1.081 0.442-0.072-1.448 0.37-2.603 1.158-2.786 0.92-0.214 1.991 0.972 2.503 2.706-0.758-0.421-1.668-0.573-2.58-0.362z"></path>
</symbol>
<symbol id="icon-icon-adv-3" viewBox="0 0 32 32">
<path fill="#200868" style="fill: var(--color4, #200868); stroke: var(--color5, #cdbeff)" stroke="#cdbeff" stroke-linejoin="miter" stroke-linecap="butt" stroke-miterlimit="4" stroke-width="1.2766" d="M4.646 0.816h22.708c2.115 0 3.83 1.715 3.83 3.83v22.708c0 2.115-1.715 3.83-3.83 3.83h-22.708c-2.115 0-3.83-1.715-3.83-3.83v-22.708c0-2.115 1.715-3.83 3.83-3.83z"></path>
<path fill="#cdbeff" style="fill: var(--color5, #cdbeff)" d="M1.455 9.6l0.755 0.701c0.26 0.242 0.408 0.581 0.408 0.936v9.527c0 0.355-0.148 0.694-0.408 0.936l-0.755 0.701v-12.8z"></path>
<path fill="#cdbeff" style="fill: var(--color5, #cdbeff)" d="M30.545 22.4l-0.755-0.701c-0.26-0.242-0.408-0.581-0.408-0.936v-9.527c0-0.355 0.148-0.694 0.408-0.936l0.755-0.701v12.8z"></path>
<path fill="#cdbeff" style="fill: var(--color5, #cdbeff)" d="M18.036 8.727c0 1.007-0.384 1.895-0.967 2.417 1.659 0.365 2.912 1.801 2.999 3.55 0.005 0.095 0.005 0.208 0.005 0.433v4.073h-1.6l-0.331 7.259c-0.008 0.17-0.148 0.305-0.319 0.305h-3.646c-0.171 0-0.311-0.134-0.319-0.305l-0.331-7.259h-1.6v-4.073c0-0.225 0-0.338 0.005-0.433 0.083-1.668 1.228-3.053 2.774-3.493-0.62-0.513-1.033-1.429-1.033-2.474 0-1.607 0.977-2.909 2.182-2.909s2.182 1.302 2.182 2.909z"></path>
<path fill="#cdbeff" style="fill: var(--color5, #cdbeff)" d="M13.282 11.555c-0.329-0.229-0.679-0.429-1.041-0.593 0.195-0.583 0.19-1.302-0.029-2.059-0.258-0.891-0.78-1.722-1.446-2.344s-1.513-1.064-2.362-1.064-1.44 0.442-1.745 1.064c-0.305 0.622-0.346 1.452-0.087 2.344 0.208 0.718 0.589 1.4 1.080 1.964-1.239 0.665-1.845 2.040-1.462 3.652 0.025 0.107 0.061 0.229 0.118 0.426l0.006 0.020 1.311 4.525h1.641l2.22 6.582c0.166 0.491 0.699 0.878 1.211 0.878h0.88l-0.029-0.613h-1.029c-0.171 0-0.348-0.129-0.404-0.293l-2.417-7.168h-1.612l-1.134-3.912c-0.063-0.216-0.094-0.325-0.116-0.416-0.337-1.415 0.216-2.617 1.33-3.17 0.184-0.091 0.382-0.165 0.595-0.219-0.202-0.149-0.396-0.325-0.576-0.522-0.434-0.477-0.785-1.080-0.975-1.736-0.447-1.543 0.167-2.794 1.372-2.794s2.544 1.251 2.992 2.794c0.199 0.687 0.188 1.317 0.007 1.803-0.071 0.193-0.169 0.363-0.291 0.505 0.242 0.065 0.48 0.148 0.713 0.249 0.274 0.118 0.539 0.26 0.793 0.422 0.153-0.121 0.315-0.231 0.486-0.328zM19.009 11.555c0.171 0.097 0.333 0.207 0.486 0.328 0.254-0.162 0.519-0.304 0.793-0.422 0.233-0.101 0.471-0.184 0.713-0.249-0.122-0.143-0.22-0.313-0.291-0.505-0.18-0.487-0.192-1.116 0.007-1.803 0.447-1.543 1.787-2.794 2.992-2.794s1.819 1.251 1.372 2.794c-0.19 0.656-0.541 1.259-0.975 1.736-0.18 0.197-0.373 0.373-0.576 0.522 0.213 0.054 0.411 0.127 0.595 0.219 1.114 0.553 1.666 1.755 1.33 3.17-0.022 0.091-0.053 0.2-0.116 0.416l-0 0-0 0-1.134 3.912h-1.612l-2.417 7.168c-0.055 0.164-0.233 0.293-0.404 0.293h-1.029l-0.029 0.613h0.88c0.512 0 1.045-0.387 1.211-0.878l2.22-6.582h1.641l1.317-4.546c0.057-0.197 0.092-0.319 0.118-0.426 0.384-1.612-0.223-2.987-1.462-3.652 0.491-0.565 0.872-1.247 1.080-1.964 0.258-0.891 0.218-1.722-0.087-2.344s-0.897-1.064-1.745-1.064-1.696 0.442-2.362 1.064c-0.666 0.622-1.188 1.452-1.446 2.344-0.219 0.757-0.224 1.476-0.029 2.059-0.362 0.164-0.711 0.364-1.041 0.593z"></path>
</symbol>
<symbol id="icon-icon-adv-4" viewBox="0 0 32 32">
<path fill="#200868" style="fill: var(--color4, #200868); stroke: var(--color5, #cdbeff)" stroke="#cdbeff" stroke-linejoin="miter" stroke-linecap="butt" stroke-miterlimit="4" stroke-width="1.2766" d="M4.646 0.816h22.708c2.115 0 3.83 1.715 3.83 3.83v22.708c0 2.115-1.715 3.83-3.83 3.83h-22.708c-2.115 0-3.83-1.715-3.83-3.83v-22.708c0-2.115 1.715-3.83 3.83-3.83z"></path>
<path fill="#cdbeff" style="fill: var(--color5, #cdbeff)" d="M1.455 9.6l0.755 0.701c0.26 0.242 0.408 0.581 0.408 0.936v9.527c0 0.355-0.148 0.694-0.408 0.936l-0.755 0.701v-12.8z"></path>
<path fill="#cdbeff" style="fill: var(--color5, #cdbeff)" d="M30.545 22.4l-0.755-0.701c-0.26-0.242-0.408-0.581-0.408-0.936v-9.527c0-0.355 0.148-0.694 0.408-0.936l0.755-0.701v12.8z"></path>
<path fill="#cdbeff" style="fill: var(--color5, #cdbeff)" d="M16 6.109v2.909h0.873v-2.909h-0.873zM16.582 10.661c4.716 0 8.539 3.823 8.539 8.539 0 2.322-0.927 4.427-2.43 5.967v-0.148h-0.962l-0.652-6.4h-2.584c-0.3 0.847-1.108 1.455-2.058 1.455s-1.758-0.607-2.058-1.455h-2.293l-0.652 6.4h-1.103c-1.42-1.525-2.289-3.57-2.289-5.818 0-1.347 0.312-2.621 0.867-3.754-0.253-0.176-0.524-0.368-0.79-0.561-0.662 1.295-1.035 2.761-1.035 4.315 0 2.61 1.053 4.974 2.757 6.691h13.479c1.704-1.717 2.757-4.081 2.757-6.691 0-5.245-4.252-9.497-9.497-9.497-0.74 0-1.46 0.085-2.152 0.245-0.025 0.329-0.055 0.671-0.091 1.010 0.715-0.194 1.467-0.298 2.243-0.298zM15.473 13.673h2.219c1.637 0 3.009 1.239 3.175 2.868l0.152 1.495h-2.405c0.003-0.048 0.005-0.097 0.005-0.145 0-1.205-0.977-2.182-2.182-2.182s-2.182 0.977-2.182 2.182c0 0.049 0.002 0.097 0.005 0.145h-2.114l0.152-1.495c0.166-1.629 1.538-2.868 3.175-2.868zM18.036 18.036c0-0.964-0.781-1.745-1.745-1.745s-1.745 0.781-1.745 1.745c0 0.964 0.781 1.745 1.745 1.745s1.745-0.781 1.745-1.745zM17.455 17.891c0 0.723-0.586 1.309-1.309 1.309s-1.309-0.586-1.309-1.309c0-0.723 0.586-1.309 1.309-1.309s1.309 0.586 1.309 1.309zM20.906 6.661l-0.979 3.047-0.833-0.261 0.979-3.047 0.833 0.261zM13.964 7.855c0 0-0.063 3.867-0.625 5.324-0.482 0.619-3.326 2.53-3.326 2.53s-2.916-1.911-3.326-2.53c-0.528-1.457-0.578-5.324-0.578-5.324h7.855zM6.982 8.568h-0.163l0.003 0.163 0.16-0.003c-0.16 0.003-0.16 0.003-0.16 0.003l0 0v0l0 0.002 0 0.006 0.001 0.025c0.001 0.021 0.001 0.053 0.002 0.094 0.002 0.081 0.006 0.198 0.012 0.341 0.011 0.287 0.030 0.68 0.062 1.108 0.062 0.847 0.174 1.856 0.377 2.419l0.006 0.018 0.010 0.016c0.048 0.073 0.126 0.156 0.216 0.241 0.092 0.086 0.204 0.182 0.327 0.282 0.247 0.2 0.547 0.422 0.835 0.628s0.568 0.399 0.774 0.539c0.103 0.070 0.189 0.128 0.248 0.167 0.030 0.020 0.053 0.035 0.069 0.046l0.025 0.016c0 0 0 0 0.088-0.133l-0.088 0.133 0.089 0.059 0.088-0.060-0.089-0.132c0.089 0.132 0.089 0.132 0.089 0.132l0-0 0-0 0.001-0.001 0.022-0.015c0.016-0.011 0.038-0.026 0.067-0.046 0.058-0.040 0.142-0.097 0.243-0.167 0.202-0.14 0.476-0.332 0.761-0.539s0.582-0.428 0.831-0.627c0.244-0.195 0.457-0.381 0.559-0.513l0.014-0.019 0.008-0.022c0.216-0.565 0.337-1.574 0.404-2.421 0.034-0.428 0.055-0.822 0.068-1.108 0.006-0.143 0.010-0.26 0.013-0.341 0.001-0.040 0.002-0.072 0.003-0.094l0.001-0.025 0-0.006 0-0.002v-0.001c0-0 0-0-0.16-0.004l0.16 0.004 0.004-0.163h-5.981zM7.156 9.185c-0.005-0.12-0.008-0.222-0.010-0.299h2.862l-0.32 1.789-2.124 0.525 2.124 0.525 0.349 1.948 0.349-1.948 2.079-0.513c-0.068 0.542-0.159 1.048-0.282 1.38-0.082 0.099-0.258 0.254-0.492 0.442-0.243 0.195-0.536 0.413-0.819 0.618s-0.555 0.395-0.756 0.535c-0.101 0.070-0.183 0.127-0.241 0.166l-0.002 0.001-0.003-0.002c-0.059-0.039-0.144-0.096-0.246-0.166-0.205-0.139-0.482-0.33-0.768-0.534s-0.58-0.423-0.82-0.617c-0.12-0.097-0.225-0.187-0.309-0.266-0.076-0.072-0.128-0.129-0.158-0.169-0.182-0.52-0.29-1.471-0.352-2.315-0.031-0.423-0.050-0.813-0.061-1.097zM10.385 10.675l-0.32-1.789h2.571c-0.003 0.077-0.006 0.178-0.012 0.298-0.012 0.284-0.033 0.674-0.067 1.097-0.024 0.297-0.053 0.608-0.091 0.908l-2.082-0.514z"></path>
</symbol>
<symbol id="icon-icon-adv-5" viewBox="0 0 32 32">
<path fill="#200868" style="fill: var(--color4, #200868); stroke: var(--color5, #cdbeff)" stroke="#cdbeff" stroke-linejoin="miter" stroke-linecap="butt" stroke-miterlimit="4" stroke-width="1.2884" d="M4.689 0.677h22.916c2.135 0 3.865 1.73 3.865 3.865v22.916c0 2.135-1.73 3.865-3.865 3.865h-22.916c-2.135 0-3.865-1.73-3.865-3.865v-22.916c0-2.135 1.73-3.865 3.865-3.865z"></path>
<path fill="#cdbeff" style="fill: var(--color5, #cdbeff)" d="M1.468 9.541l0.762 0.707c0.263 0.244 0.412 0.586 0.412 0.944v9.614c0 0.358-0.149 0.701-0.412 0.945l-0.762 0.707v-12.917z"></path>
<path fill="#cdbeff" style="fill: var(--color5, #cdbeff)" d="M30.826 22.459l-0.762-0.707c-0.263-0.244-0.412-0.586-0.412-0.945v-9.614c0-0.358 0.149-0.701 0.412-0.944l0.762-0.707v12.917z"></path>
<path fill="#cdbeff" style="fill: var(--color5, #cdbeff)" d="M7.633 7.486c0 0 0.108 8.528 1.253 11.742 0.888 1.365 7.21 5.579 7.21 5.579s6.165-4.214 7.21-5.579c1.218-3.213 1.354-11.742 1.354-11.742h-17.028zM9.196 8.765h13.904l-0.011 0.494-0.483-0.011c0.483 0.011 0.483 0.011 0.483 0.011l-0 0v0.001l-0 0.004-0 0.014-0.001 0.055c-0.001 0.048-0.003 0.118-0.006 0.208-0.006 0.18-0.015 0.44-0.029 0.759-0.028 0.638-0.075 1.514-0.15 2.466-0.149 1.878-0.417 4.138-0.905 5.411l-0.025 0.066-0.044 0.056c-0.238 0.307-0.722 0.729-1.262 1.161-0.555 0.445-1.217 0.938-1.85 1.397s-1.242 0.886-1.692 1.198c-0.225 0.156-0.411 0.283-0.54 0.372-0.065 0.044-0.115 0.079-0.15 0.102l-0.053 0.036c-0 0-0 0-0.271-0.4-0.266 0.403-0.266 0.403-0.266 0.403l-0-0-0.001-0-0.054-0.036c-0.036-0.024-0.087-0.058-0.154-0.102-0.133-0.088-0.322-0.216-0.552-0.372-0.459-0.312-1.080-0.739-1.721-1.199-0.641-0.459-1.308-0.953-1.86-1.4-0.276-0.223-0.527-0.438-0.734-0.633-0.2-0.189-0.382-0.381-0.498-0.557l-0.031-0.048-0.019-0.054c-0.458-1.271-0.706-3.527-0.843-5.405-0.070-0.952-0.112-1.827-0.137-2.465-0.012-0.319-0.021-0.579-0.026-0.759-0.003-0.090-0.004-0.16-0.005-0.208l-0.001-0.055-0-0.014-0-0.004-0-0.001v-0c0-0 0-0 0.483-0.009l-0.483 0.009-0.009-0.492zM16.109 22.165l0.271 0.4-0.267 0.181-0.269-0.178 0.266-0.403zM10.184 9.731h11.923c-0.005 0.148-0.012 0.325-0.021 0.527-0.027 0.63-0.074 1.494-0.148 2.431-0.148 1.862-0.403 3.933-0.818 5.072-0.178 0.208-0.551 0.539-1.059 0.946-0.538 0.431-1.186 0.914-1.813 1.368s-1.229 0.877-1.676 1.186c-0.186 0.129-0.345 0.238-0.467 0.322-0.125-0.084-0.289-0.194-0.481-0.324-0.455-0.309-1.068-0.731-1.702-1.185-0.634-0.454-1.284-0.936-1.815-1.365-0.265-0.215-0.496-0.413-0.678-0.584-0.158-0.149-0.264-0.264-0.324-0.343-0.203-0.588-0.364-1.426-0.492-2.356l4.62 1.172 0.766 4.395 0.766-4.395 4.666-1.183-4.666-1.183-0.766-4.395-0.766 4.395-4.623 1.172c-0.118-0.867-0.207-1.813-0.273-2.71-0.069-0.938-0.111-1.802-0.135-2.432-0.008-0.203-0.014-0.381-0.019-0.529z"></path>
</symbol>
<symbol id="icon-icon-adv-6" viewBox="0 0 32 32">
<path fill="#200868" style="fill: var(--color4, #200868); stroke: var(--color5, #cdbeff)" stroke="#cdbeff" stroke-linejoin="miter" stroke-linecap="butt" stroke-miterlimit="4" stroke-width="1.2884" d="M4.689 0.677h22.916c2.135 0 3.865 1.73 3.865 3.865v22.916c0 2.135-1.73 3.865-3.865 3.865h-22.916c-2.135 0-3.865-1.73-3.865-3.865v-22.916c0-2.135 1.73-3.865 3.865-3.865z"></path>
<path fill="#cdbeff" style="fill: var(--color5, #cdbeff)" d="M1.468 9.541l0.762 0.707c0.263 0.244 0.412 0.586 0.412 0.944v9.614c0 0.358-0.149 0.701-0.412 0.945l-0.762 0.707v-12.917z"></path>
<path fill="#cdbeff" style="fill: var(--color5, #cdbeff)" d="M30.826 22.459l-0.762-0.707c-0.263-0.244-0.412-0.586-0.412-0.945v-9.614c0-0.358 0.149-0.701 0.412-0.944l0.762-0.707v12.917z"></path>
<path fill="#cdbeff" style="fill: var(--color5, #cdbeff)" d="M17.166 9.619c0.782-0.406 1.329-1.339 1.329-2.426 0-1.459-0.986-2.642-2.202-2.642s-2.202 1.183-2.202 2.642c0 1.087 0.547 2.021 1.329 2.426-1.185 0.241-2.173 1.024-2.693 2.079-2.495-0.31-4.214-0.962-4.214-1.717 0-0.867 2.267-1.598 5.372-1.831-0.022-0.099-0.040-0.2-0.054-0.303-4.396 0.261-7.667 1.249-7.667 2.428 0 1.049 2.587 1.946 6.252 2.315-0.051 0.239-0.081 0.486-0.086 0.739-0.001 0.039-0.001 0.084-0.001 0.175v3.67h1.605l0.079 1.688c-3.171-0.239-5.501-1.036-5.501-1.982 0-0.701 1.278-1.32 3.229-1.691v-0.388c-3.304 0.431-5.578 1.331-5.578 2.372 0 1.269 3.382 2.33 7.891 2.584l0.194 4.155c0.008 0.172 0.15 0.307 0.322 0.307h3.442c0.172 0 0.314-0.135 0.322-0.307l0.195-4.173c4.361-0.283 7.597-1.325 7.597-2.566 0-1.041-2.274-1.941-5.578-2.372v0.446c1.785 0.376 2.936 0.967 2.936 1.632 0 0.887-2.045 1.642-4.911 1.93l0.077-1.637h1.605v-3.67c0-0.091 0-0.137-0.001-0.175-0.005-0.264-0.037-0.521-0.092-0.769 3.512-0.386 5.965-1.264 5.965-2.285 0-1.153-3.127-2.123-7.376-2.409-0.016 0.114-0.037 0.225-0.062 0.335 2.805 0.275 4.796 0.969 4.796 1.781 0 0.698-1.47 1.309-3.665 1.641-0.53-1.017-1.498-1.768-2.655-2.004zM13.604 21.953c-4.281 0.281-7.438 1.255-7.438 2.414 0 1.378 4.469 2.495 9.982 2.495s9.982-1.117 9.982-2.495c0-1.158-3.158-2.133-7.438-2.414l-0.015 0.337c2.814 0.274 4.812 0.969 4.812 1.783 0 1.054-3.352 1.908-7.486 1.908s-7.486-0.854-7.486-1.908c0-0.842 2.137-1.556 5.104-1.81l-0.014-0.311z"></path>
</symbol>
<symbol id="icon-icon-adv-7" viewBox="0 0 32 32">
<path fill="#200868" style="fill: var(--color4, #200868); stroke: var(--color5, #cdbeff)" stroke="#cdbeff" stroke-linejoin="miter" stroke-linecap="butt" stroke-miterlimit="4" stroke-width="1.2884" d="M4.689 0.677h22.916c2.135 0 3.865 1.73 3.865 3.865v22.916c0 2.135-1.73 3.865-3.865 3.865h-22.916c-2.135 0-3.865-1.73-3.865-3.865v-22.916c0-2.135 1.73-3.865 3.865-3.865z"></path>
<path fill="#cdbeff" style="fill: var(--color5, #cdbeff)" d="M1.468 9.541l0.762 0.707c0.263 0.244 0.412 0.586 0.412 0.944v9.614c0 0.358-0.149 0.701-0.412 0.945l-0.762 0.707v-12.917z"></path>
<path fill="#cdbeff" style="fill: var(--color5, #cdbeff)" d="M30.826 22.459l-0.762-0.707c-0.263-0.244-0.412-0.586-0.412-0.945v-9.614c0-0.358 0.149-0.701 0.412-0.944l0.762-0.707v12.917z"></path>
<path fill="#cdbeff" style="fill: var(--color5, #cdbeff)" d="M17.473 4.55h-2.652l0.334 2.683c-1.698 0.165-3.253 0.82-4.521 1.822l-1.699-2.156-1.889 1.889 2.166 1.687c-1.005 1.266-1.662 2.82-1.83 4.518l-2.684-0.319v2.652l2.716-0.338c0.218 1.665 0.909 3.182 1.934 4.41l-2.301 1.813 1.889 1.889 1.829-2.348c1.248 0.949 2.762 1.566 4.41 1.722l-0.353 2.975h2.652l-0.374-3.005c1.616-0.205 3.094-0.855 4.305-1.824l1.954 2.48 1.889-1.889-2.491-1.94c0.972-1.21 1.625-2.686 1.833-4.302l3.007 0.357v-2.652l-2.973 0.37c-0.153-1.649-0.768-3.163-1.714-4.413l2.338-1.842-1.889-1.889-1.801 2.312c-1.227-1.028-2.743-1.722-4.408-1.943l0.323-2.718zM10.933 9.435c1.2-0.949 2.673-1.568 4.281-1.722l0.162 1.299c-1.344 0.171-2.572 0.713-3.578 1.52l-0.865-1.098zM20.627 10.406c-1.042-0.788-2.306-1.299-3.681-1.422l0.147-1.235c1.575 0.21 3.009 0.869 4.168 1.844l-0.633 0.813zM21.793 11.51l0.737-0.581c0.893 1.182 1.472 2.615 1.614 4.174l-0.72 0.089c-0.185-1.393-0.768-2.66-1.631-3.682zM23.454 16.834l0.656 0.078c-0.197 1.526-0.815 2.92-1.734 4.062l-0.451-0.352c0.844-1.060 1.395-2.364 1.53-3.789zM20.751 21.792l0.354 0.45c-1.144 0.916-2.539 1.53-4.066 1.724l-0.082-0.656c1.426-0.131 2.731-0.677 3.793-1.517zM15.316 23.274l-0.086 0.721c-1.558-0.145-2.989-0.728-4.17-1.624l0.577-0.741c1.020 0.867 2.286 1.455 3.678 1.644zM10.538 20.461l-0.811 0.639c-0.972-1.161-1.627-2.595-1.834-4.171l1.235-0.154c0.119 1.376 0.626 2.641 1.41 3.686zM9.162 15.204l-1.301-0.154c0.157-1.608 0.779-3.079 1.731-4.278l1.103 0.859c-0.811 1.004-1.357 2.23-1.533 3.573zM22.681 16.147c0 3.528-2.86 6.387-6.387 6.387s-6.387-2.86-6.387-6.387c0-3.528 2.86-6.387 6.387-6.387s6.387 2.86 6.387 6.387zM22.018 16.147c0-3.162-2.563-5.725-5.725-5.725s-5.725 2.563-5.725 5.725c0 3.162 2.563 5.725 5.725 5.725s5.725-2.563 5.725-5.725zM16.294 12.184l1.188 2.328 2.581 0.411-1.847 1.849 0.407 2.582-2.33-1.185-2.33 1.185 0.407-2.582-1.847-1.849 2.581-0.411 1.188-2.328z"></path>
</symbol>
<symbol id="icon-icon-adv-8" viewBox="0 0 32 32">
<path fill="#200868" style="fill: var(--color4, #200868); stroke: var(--color5, #cdbeff)" stroke="#cdbeff" stroke-linejoin="miter" stroke-linecap="butt" stroke-miterlimit="4" stroke-width="1.2884" d="M4.689 0.677h22.916c2.135 0 3.865 1.73 3.865 3.865v22.916c0 2.135-1.73 3.865-3.865 3.865h-22.916c-2.135 0-3.865-1.73-3.865-3.865v-22.916c0-2.135 1.73-3.865 3.865-3.865z"></path>
<path fill="#cdbeff" style="fill: var(--color5, #cdbeff)" d="M1.468 9.541l0.762 0.707c0.263 0.244 0.412 0.586 0.412 0.944v9.614c0 0.358-0.149 0.701-0.412 0.945l-0.762 0.707v-12.917z"></path>
<path fill="#cdbeff" style="fill: var(--color5, #cdbeff)" d="M30.826 22.459l-0.762-0.707c-0.263-0.244-0.412-0.586-0.412-0.945v-9.614c0-0.358 0.149-0.701 0.412-0.944l0.762-0.707v12.917z"></path>
<path fill="#cdbeff" style="fill: var(--color5, #cdbeff)" d="M25.835 11.156c0 1.378-2.695 2.495-6.018 2.495s-6.018-1.117-6.018-2.495c0-1.378 2.695-2.495 6.018-2.495s6.018 1.117 6.018 2.495zM26.117 12.025c0.053 0.015-0.096 0.814-0.096 0.741s-0.047-0.134-0.104-0.134c-0.033 0-0.062 0.020-0.082 0.051-0.004 0.007 0.009-0.058 0.029-0.153-0.767 0.905-3.119 1.563-5.901 1.563-2.029 0-3.829-0.35-4.953-0.891 0.697 0.871 1.146 2.001 1.24 3.235 1.033 0.279 2.319 0.444 3.712 0.444 3.405 0 6.165-0.986 6.165-2.203v-2.788c0 0.045-0.004 0.090-0.011 0.135zM15.897 19.114c1.14 0.513 2.944 0.703 4.818 0.703 3.525 0 6-0.994 6-2.519l-0-0.025 0-1.406c-0.035-0.053-0.092-0.088-0.157-0.088-0.052 0-0.1 0.023-0.135 0.060-0.012 0.013 0.024-0.098 0.077-0.25-0.784 1.028-3.516 1.788-6.584 1.788-1.349 0-2.603-0.147-3.648-0.399-0.006 0.696-0.124 1.416-0.372 2.137zM13.798 12.112v-0.025c0 0.008 0 0.016 0 0.025l-0-0zM14.301 21.779c0.702 0.636 2.274 1.042 5.516 1.267 4.117 0 5.916-0.693 6.014-2.349h0.004v-1.381c-1.211 0.624-3.063 1.071-5.138 1.071-2.203 0.095-3.891-0.237-5.009-0.738-0.053 0.121-0.11 0.242-0.171 0.363-0.338 0.671-0.75 1.261-1.217 1.766zM13.809 12.021c-0.007-0.043-0.011-0.087-0.011-0.132v0.197c0-0.036 0.003-0.059 0.011-0.066zM18.077 10.346l0.862 1.165 2.028 0.021 0.623-1.184-1.187 0.293-0.567-0.787-0.561 0.776-1.198-0.284zM13.225 17.974c1.032-2.989-0.072-5.858-1.96-6.551s-4.255 1.168-5.287 4.156c-1.032 2.989-0.337 5.973 1.551 6.666s4.665-1.284 5.696-4.272zM8 17.379l0.753-2.193 0.431 1.328 1.531-1.324-0.36 2.167 1.327-0.215-1.649 1.896-2.033-1.658zM9.53 22.854c2.213 0.107 4.529-1.115 5.747-3.551 1.451-2.9 0.376-6.006-1.74-7.159-0.145-0.073-0.293-0.134-0.444-0.184 1.639 1.441 2.248 4.35 0.891 7.063-0.975 1.948-2.732 3.335-4.453 3.83z"></path>
</symbol>
<symbol id="icon-quote" viewBox="0 0 32 32">
<path fill="#5c3d82" style="fill: var(--color6, #5c3d82)" d="M2.615 26.24v-5.86c0-1.685 0.316-3.437 0.948-5.256 0.651-1.838 1.532-3.571 2.643-5.199 1.13-1.647 2.394-3.035 3.792-4.165l4.826 3.131c-1.13 1.704-2.078 3.485-2.844 5.343-0.747 1.838-1.111 3.868-1.091 6.089v5.917h-8.272zM17.178 26.24v-5.86c0-1.685 0.316-3.437 0.948-5.256 0.651-1.838 1.532-3.571 2.643-5.199 1.13-1.647 2.394-3.035 3.792-4.165l4.826 3.131c-1.13 1.704-2.078 3.485-2.844 5.343-0.747 1.838-1.111 3.868-1.091 6.089v5.917h-8.272z"></path>
</symbol>
<symbol id="icon-stars" viewBox="0 0 156 32">
<path fill="#fcd503" style="fill: var(--color7, #fcd503)" d="M14.627 2.4c0.409-0.83 1.593-0.83 2.002 0l3.332 6.752c0.163 0.329 0.477 0.558 0.84 0.611l7.451 1.083c0.916 0.133 1.281 1.258 0.619 1.904l-5.392 5.256c-0.263 0.256-0.383 0.626-0.321 0.988l1.273 7.421c0.156 0.912-0.801 1.607-1.62 1.177l-6.664-3.504c-0.325-0.171-0.714-0.171-1.039 0l-6.664 3.504c-0.819 0.431-1.776-0.265-1.62-1.177l1.273-7.421c0.062-0.362-0.058-0.732-0.321-0.988l-5.392-5.256c-0.663-0.646-0.297-1.771 0.619-1.904l7.451-1.083c0.364-0.053 0.678-0.281 0.84-0.611l3.332-6.752z"></path>
<path fill="#fcd503" style="fill: var(--color7, #fcd503)" d="M45.883 2.4c0.409-0.83 1.593-0.83 2.002 0l3.332 6.752c0.163 0.329 0.477 0.558 0.84 0.611l7.451 1.083c0.916 0.133 1.281 1.258 0.619 1.904l-5.392 5.256c-0.263 0.256-0.383 0.626-0.321 0.988l1.273 7.421c0.156 0.912-0.801 1.607-1.62 1.177l-6.664-3.504c-0.325-0.171-0.714-0.171-1.039 0l-6.664 3.504c-0.819 0.431-1.776-0.265-1.62-1.177l1.273-7.421c0.062-0.362-0.058-0.732-0.321-0.988l-5.392-5.256c-0.662-0.646-0.297-1.771 0.619-1.904l7.451-1.083c0.364-0.053 0.678-0.281 0.84-0.611l3.332-6.752z"></path>
<path fill="#fcd503" style="fill: var(--color7, #fcd503)" d="M77.139 2.4c0.409-0.83 1.593-0.83 2.002 0l3.332 6.752c0.162 0.329 0.477 0.558 0.84 0.611l7.451 1.083c0.916 0.133 1.281 1.258 0.619 1.904l-5.392 5.256c-0.263 0.256-0.383 0.626-0.322 0.988l1.273 7.421c0.156 0.912-0.801 1.607-1.62 1.177l-6.664-3.504c-0.325-0.171-0.714-0.171-1.039 0l-6.664 3.504c-0.819 0.431-1.776-0.265-1.62-1.177l1.273-7.421c0.062-0.362-0.058-0.732-0.321-0.988l-5.392-5.256c-0.662-0.646-0.297-1.771 0.619-1.904l7.451-1.083c0.364-0.053 0.678-0.281 0.84-0.611l3.332-6.752z"></path>
<path fill="#fcd503" style="fill: var(--color7, #fcd503)" d="M108.394 2.4c0.409-0.83 1.593-0.83 2.002 0l3.332 6.752c0.162 0.329 0.477 0.558 0.84 0.611l7.451 1.083c0.916 0.133 1.281 1.258 0.619 1.904l-5.392 5.256c-0.263 0.256-0.383 0.626-0.322 0.988l1.273 7.421c0.156 0.912-0.801 1.607-1.62 1.177l-6.664-3.504c-0.325-0.171-0.714-0.171-1.039 0l-6.664 3.504c-0.819 0.431-1.776-0.265-1.62-1.177l1.273-7.421c0.062-0.362-0.058-0.732-0.322-0.988l-5.392-5.256c-0.662-0.646-0.297-1.771 0.619-1.904l7.451-1.083c0.363-0.053 0.678-0.281 0.84-0.611l3.332-6.752z"></path>
<path fill="#fcd503" style="fill: var(--color7, #fcd503)" d="M139.65 2.4c0.409-0.83 1.593-0.83 2.002 0l3.332 6.752c0.162 0.329 0.477 0.558 0.84 0.611l7.451 1.083c0.916 0.133 1.281 1.258 0.619 1.904l-5.392 5.256c-0.263 0.256-0.383 0.626-0.321 0.988l1.273 7.421c0.156 0.912-0.801 1.607-1.62 1.177l-6.664-3.504c-0.325-0.171-0.714-0.171-1.039 0l-6.664 3.504c-0.819 0.431-1.776-0.265-1.62-1.177l1.273-7.421c0.062-0.362-0.058-0.732-0.321-0.988l-5.392-5.256c-0.662-0.646-0.297-1.771 0.619-1.904l7.451-1.083c0.363-0.053 0.678-0.281 0.84-0.611l3.332-6.752z"></path>
</symbol>
</defs>
</svg>
